<?xml version="1.0" encoding="UTF-8"?>
<svg version="1.1" xmlns="http://www.w3.org/2000/svg" width="81" height="53">
<path d="M0 0 C2.94548271 1.33310756 5.62224646 2.79622842 8 5 C8.36328158 6.32548685 8.70068393 7.65862057 9 9 C10.65438613 9.69658363 12.32254318 10.36096883 14 11 C16.85213914 13.95048877 17 14.71100137 17 19 C16.34 19 15.68 19 15 19 C15.495 19.99 15.495 19.99 16 21 C16.721875 20.46375 17.44375 19.9275 18.1875 19.375 C21 18 21 18 23.75 18.5 C26 20 26 20 26.9375 22.4375 C27 25 27 25 25 28 C25.97453125 28.70576172 25.97453125 28.70576172 26.96875 29.42578125 C27.8040625 30.04839844 28.639375 30.67101562 29.5 31.3125 C30.3353125 31.92738281 31.170625 32.54226562 32.03125 33.17578125 C32.6809375 33.77777344 33.330625 34.37976562 34 35 C34 35.99 34 36.98 34 38 C32.68 38 31.36 38 30 38 C30.5053125 38.39832031 31.010625 38.79664063 31.53125 39.20703125 C32.1809375 39.73683594 32.830625 40.26664063 33.5 40.8125 C34.1496875 41.33457031 34.799375 41.85664062 35.46875 42.39453125 C37 44 37 44 37 47 C33.31733897 46.40049704 29.65456815 45.75241109 26 45 C26.495 45.94875 26.99 46.8975 27.5 47.875 C29 51 29 51 29 53 C24.61110675 52.33501617 21.0188515 50.81242323 17 49 C17 48.34 17 47.68 17 47 C18.98 47 20.96 47 23 47 C22.01 44.525 22.01 44.525 21 42 C23.97 42 26.94 42 30 42 C28.845 41.21625 27.69 40.4325 26.5 39.625 C24.53125 38.2890625 24.53125 38.2890625 23 37 C23 36.34 23 35.68 23 35 C24.65 34.67 26.3 34.34 28 34 C27.21753906 33.59007812 26.43507813 33.18015625 25.62890625 32.7578125 C24.61699219 32.21898437 23.60507813 31.68015625 22.5625 31.125 C21.04849609 30.32449219 21.04849609 30.32449219 19.50390625 29.5078125 C17 28 17 28 16 26 C13.89767656 28.8684413 13.89767656 28.8684413 13 32 C12.01 32.33 11.02 32.66 10 33 C10.804375 33.680625 11.60875 34.36125 12.4375 35.0625 C15.5115335 38.58639206 16.08158318 40.34975862 16 45 C13.06329114 50.46835443 13.06329114 50.46835443 10 52 C5.56889335 52.32542291 1.12906855 52.32455369 -3.3125 52.375 C-5.1677832 52.43107422 -5.1677832 52.43107422 -7.06054688 52.48828125 C-17.24362848 52.58730635 -17.24362848 52.58730635 -20.29296875 49.6640625 C-22.27376322 46.57275397 -23 44.67857012 -23 41 C-21.49491232 37.7640615 -19.63836567 35.38709275 -17 33 C-17.639375 32.7525 -18.27875 32.505 -18.9375 32.25 C-21 31 -21 31 -21.6875 28.9375 C-21.790625 28.298125 -21.89375 27.65875 -22 27 C-22.33 26.67 -22.66 26.34 -23 26 C-23.309375 26.5775 -23.61875 27.155 -23.9375 27.75 C-27.00086839 31.09185643 -30.83678501 32.35915216 -35 34 C-33.35 34.33 -31.7 34.66 -30 35 C-31.33332095 38.99996286 -33.4957827 39.83782337 -37 42 C-34.03 42 -31.06 42 -28 42 C-29 44 -30 46 -31 48 C-27.535 47.505 -27.535 47.505 -24 47 C-24 47.66 -24 48.32 -24 49 C-25.43429001 49.67354499 -26.87257057 50.33859701 -28.3125 51 C-29.11300781 51.37125 -29.91351563 51.7425 -30.73828125 52.125 C-33 53 -33 53 -36 53 C-35.67 52.05125 -35.34 51.1025 -35 50.125 C-33.89840809 47.22937548 -33.89840809 47.22937548 -34 45 C-34.9075 45.33 -35.815 45.66 -36.75 46 C-40 47 -40 47 -44 47 C-43.82374165 44.62051228 -43.30280227 43.29774151 -41.59765625 41.62109375 C-40.09350908 40.37884514 -38.54870149 39.18623944 -37 38 C-38.32 38 -39.64 38 -41 38 C-40.65514457 35.1157546 -40.21744593 34.1792182 -37.93359375 32.296875 C-37.10988281 31.78640625 -36.28617188 31.2759375 -35.4375 30.75 C-34.61121094 30.22921875 -33.78492188 29.7084375 -32.93359375 29.171875 C-32.29550781 28.78515625 -31.65742188 28.3984375 -31 28 C-31.99 27.34 -32.98 26.68 -34 26 C-33.8125 23.125 -33.8125 23.125 -33 20 C-30.75 18.4375 -30.75 18.4375 -28 18 C-25.1875 19.375 -25.1875 19.375 -23 21 C-22.67 20.34 -22.34 19.68 -22 19 C-22.66 19 -23.32 19 -24 19 C-23.7312159 15.05783322 -23.44655191 13.43510186 -20.5625 10.625 C-18 9 -18 9 -16 9 C-15.814375 8.2575 -15.62875 7.515 -15.4375 6.75 C-12.3065373 0.76033223 -6.36902197 -1.00563505 0 0 Z M-13 6 C-13 6.66 -13 7.32 -13 8 C-6.73 8 -0.46 8 6 8 C5.33178312 4.87220895 5.33178312 4.87220895 2.875 3.8125 C-3.28343386 2.07207304 -7.51291675 2.78804883 -13 6 Z M-19 12 C-20.74324087 14.50494008 -20.74324087 14.50494008 -21 17 C-20.484375 16.649375 -19.96875 16.29875 -19.4375 15.9375 C-16.00608541 14.61772516 -13.53942718 15.21346063 -10 16 C-8 18 -8 18 -7.83984375 20.12890625 C-7.87207031 20.93199219 -7.90429688 21.73507813 -7.9375 22.5625 C-7.99190191 24.04081272 -8.02026267 25.52082541 -8 27 C-6.81575674 28.41577477 -6.81575674 28.41577477 -3.4375 28.0625 C-2.303125 28.041875 -1.16875 28.02125 0 28 C1.26303331 25.86009947 1.26303331 25.86009947 0.9375 22.5625 C1 19 1 19 3 16 C6.5559841 15.14392975 8.9788559 14.60725227 12.4375 15.9375 C12.953125 16.288125 13.46875 16.63875 14 17 C13.87822312 15.08533633 13.87822312 15.08533633 13 13 C4.73486478 6.62403854 -9.9696151 7.42222072 -19 12 Z M-18 17 C-18.66 18.32 -19.32 19.64 -20 21 C-16.37 21 -12.74 21 -9 21 C-9.33 20.01 -9.66 19.02 -10 18 C-12.70879335 16.64560332 -15.00933268 16.93498549 -18 17 Z M3.125 18.4375 C1.90261588 19.81436152 1.90261588 19.81436152 2 21 C5.63 21 9.26 21 13 21 C12.34 19.68 11.68 18.36 11 17 C6.76613236 16.60399688 6.76613236 16.60399688 3.125 18.4375 Z M-20 24 C-19.67 24.99 -19.34 25.98 -19 27 C-16.69 27.33 -14.38 27.66 -12 28 C-11.01 26.68 -10.02 25.36 -9 24 C-10.32 24 -11.64 24 -13 24 C-13.33 24.66 -13.66 25.32 -14 26 C-15.32 26 -16.64 26 -18 26 C-18 25.34 -18 24.68 -18 24 C-18.66 24 -19.32 24 -20 24 Z M2 24 C2.99 25.32 3.98 26.64 5 28 C8.465 27.505 8.465 27.505 12 27 C12.33 26.01 12.66 25.02 13 24 C12.34 24 11.68 24 11 24 C11 24.66 11 25.32 11 26 C9.35 26 7.7 26 6 26 C6 25.34 6 24.68 6 24 C4.68 24 3.36 24 2 24 Z M-8 30 C-6.68 30.99 -5.36 31.98 -4 33 C-0.77825456 32.28776153 -0.77825456 32.28776153 2 31 C2 30.67 2 30.34 2 30 C-1.3 30 -4.6 30 -8 30 Z M-18.85351562 37.31005859 C-20.81415056 40.20007457 -20.4134628 42.63323151 -20 46 C-17.94121804 48.68274575 -16.76507395 49.85669266 -13.40625 50.48583984 C-12.4471875 50.47762207 -11.488125 50.4694043 -10.5 50.4609375 C-9.448125 50.45707031 -8.39625 50.45320313 -7.3125 50.44921875 C-6.219375 50.42472656 -5.12625 50.40023437 -4 50.375 C-2.3603125 50.37306641 -2.3603125 50.37306641 -0.6875 50.37109375 C5.97062684 50.46294505 5.97062684 50.46294505 12 48 C13.52491998 44.95016004 13.23562548 42.3576631 13 39 C11.93360986 37.18186434 11.93360986 37.18186434 10 36 C7.14657543 35.53645067 7.14657543 35.53645067 3.90625 35.6015625 C2.11380859 35.59576172 2.11380859 35.59576172 0.28515625 35.58984375 C-0.96394531 35.60144531 -2.21304688 35.61304688 -3.5 35.625 C-4.74910156 35.61339844 -5.99820313 35.60179687 -7.28515625 35.58984375 C-8.48011719 35.59371094 -9.67507812 35.59757812 -10.90625 35.6015625 C-12.55077148 35.60663818 -12.55077148 35.60663818 -14.22851562 35.61181641 C-16.99374668 35.78326204 -16.99374668 35.78326204 -18.85351562 37.31005859 Z " fill="#4D4D4D" transform="translate(44,0)"/>
<path d="M0 0 C0 0.66 0 1.32 0 2 C-9.57 2 -19.14 2 -29 2 C-29 1.34 -29 0.68 -29 0 C-19.39214212 -1.90270181 -9.48499512 -3.16166504 0 0 Z " fill="#4D4D4D" transform="translate(55,42)"/>
</svg>
